<?xml version="1.0" encoding="UTF-8" standalone="no"?>
<svg
   xmlns:dc="http://purl.org/dc/elements/1.1/"
   xmlns:cc="http://creativecommons.org/ns#"
   xmlns:rdf="http://www.w3.org/1999/02/22-rdf-syntax-ns#"
   xmlns:svg="http://www.w3.org/2000/svg"
   xmlns="http://www.w3.org/2000/svg"
   xmlns:sodipodi="http://sodipodi.sourceforge.net/DTD/sodipodi-0.dtd"
   xmlns:inkscape="http://www.inkscape.org/namespaces/inkscape"
   inkscape:version="1.0 (4035a4fb49, 2020-05-01)"
   sodipodi:docname="degrees-grammar.svg"
   id="svg333"
   version="1.1"
   viewBox="0.00 0.00 602.00 608.00"
   height="608pt"
   width="602pt">
  <metadata
     id="metadata339">
    <rdf:RDF>
      <cc:Work
         rdf:about="">
        <dc:format>image/svg+xml</dc:format>
        <dc:type
           rdf:resource="http://purl.org/dc/dcmitype/StillImage" />
      </cc:Work>
    </rdf:RDF>
  </metadata>
  <defs
     id="defs337" />
  <sodipodi:namedview
     inkscape:current-layer="svg333"
     inkscape:window-maximized="1"
     inkscape:window-y="32"
     inkscape:window-x="0"
     inkscape:cy="405.33333"
     inkscape:cx="401.33333"
     inkscape:zoom="1.0090461"
     showgrid="false"
     id="namedview335"
     inkscape:window-height="985"
     inkscape:window-width="1920"
     inkscape:pageshadow="2"
     inkscape:pageopacity="0"
     guidetolerance="10"
     gridtolerance="10"
     objecttolerance="10"
     borderopacity="1"
     bordercolor="#666666"
     pagecolor="#ffffff" />
  <g
     transform="scale(1 1) rotate(0) translate(4 604)"
     class="graph"
     id="graph0">
    <title
       id="title2">degrees</title>
    <!-- I -->
    <g
       class="node"
       id="node1">
      <title
         id="title6">I</title>
      <ellipse
         id="ellipse8"
         ry="18"
         rx="27"
         cy="-168"
         cx="27"
         stroke="black"
         fill="none" />
      <text
         id="text10"
         font-size="14.00"
         font-family="Times,serif"
         y="-164.3"
         x="27"
         text-anchor="middle">I</text>
    </g>
    <!-- V -->
    <g
       class="node"
       id="node2">
      <title
         id="title13">V</title>
      <ellipse
         id="ellipse15"
         ry="18"
         rx="27"
         cy="-306"
         cx="243"
         stroke="black"
         fill="none" />
      <text
         id="text17"
         font-size="14.00"
         font-family="Times,serif"
         y="-302.3"
         x="243"
         text-anchor="middle">V</text>
    </g>
    <!-- I&#45;&gt;V -->
    <g
       class="edge"
       id="edge1">
      <title
         id="title20">I-&gt;V</title>
      <path
         id="path22"
         d="M36.1293,-185.219C43.6806,-199.632 56.1388,-219.891 72,-233 112.623,-266.573 171.005,-287.097 207.696,-297.509"
         stroke="black"
         fill="none" />
      <polygon
         id="polygon24"
         points="206.867,-300.91 217.437,-300.179 208.718,-294.159 206.867,-300.91"
         stroke="black"
         fill="black" />
      <text
         id="text26"
         font-size="14.00"
         font-family="Times,serif"
         y="-285.8"
         x="135"
         text-anchor="middle">0.1</text>
    </g>
    <!-- IV -->
    <g
       class="node"
       id="node3">
      <title
         id="title29">IV</title>
      <ellipse
         id="ellipse31"
         ry="18"
         rx="27"
         cy="-122"
         cx="135"
         stroke="black"
         fill="none" />
      <text
         id="text33"
         font-size="14.00"
         font-family="Times,serif"
         y="-118.3"
         x="135"
         text-anchor="middle">IV</text>
    </g>
    <!-- I&#45;&gt;IV -->
    <g
       class="edge"
       id="edge2">
      <title
         id="title36">I-&gt;IV</title>
      <path
         id="path38"
         d="M34.025,-150.345C40.58,-134.225 52.7729,-111.376 72,-101 83.0951,-95.0126 96.2172,-98.1581 107.526,-103.645"
         stroke="black"
         fill="none" />
      <polygon
         id="polygon40"
         points="106.076,-106.844 116.514,-108.656 109.484,-100.73 106.076,-106.844"
         stroke="black"
         fill="black" />
      <text
         id="text42"
         font-size="14.00"
         font-family="Times,serif"
         y="-104.8"
         x="81"
         text-anchor="middle">0.2</text>
    </g>
    <!-- VI -->
    <g
       class="node"
       id="node4">
      <title
         id="title45">VI</title>
      <ellipse
         id="ellipse47"
         ry="18"
         rx="27"
         cy="-413"
         cx="351"
         stroke="black"
         fill="none" />
      <text
         id="text49"
         font-size="14.00"
         font-family="Times,serif"
         y="-409.3"
         x="351"
         text-anchor="middle">VI</text>
    </g>
    <!-- I&#45;&gt;VI -->
    <g
       class="edge"
       id="edge3">
      <title
         id="title52">I-&gt;VI</title>
      <path
         id="path54"
         d="M34.8308,-185.608C46.301,-213.245 71.7851,-267.138 108,-301 177.695,-366.166 196.52,-390.882 288,-418 296.632,-420.559 306.218,-420.921 315.221,-420.245"
         stroke="black"
         fill="none" />
      <polygon
         id="polygon56"
         points="315.906,-423.689 325.429,-419.045 315.089,-416.737 315.906,-423.689"
         stroke="black"
         fill="black" />
      <text
         id="text58"
         font-size="14.00"
         font-family="Times,serif"
         y="-382.8"
         x="189"
         text-anchor="middle">0.2</text>
    </g>
    <!-- III -->
    <g
       class="node"
       id="node5">
      <title
         id="title61">III</title>
      <ellipse
         id="ellipse63"
         ry="18"
         rx="27"
         cy="-145"
         cx="567"
         stroke="black"
         fill="none" />
      <text
         id="text65"
         font-size="14.00"
         font-family="Times,serif"
         y="-141.3"
         x="567"
         text-anchor="middle">III</text>
    </g>
    <!-- I&#45;&gt;III -->
    <g
       class="edge"
       id="edge4">
      <title
         id="title68">I-&gt;III</title>
      <path
         id="path70"
         d="M28.6442,-149.576C30.6671,-119.49 38.8926,-59.6094 72,-24 92.1195,-2.35999 104.452,-0 134,-0 134,-0 134,-0 460,-0 489.548,-0 501.322,-2.89268 522,-24 546.857,-49.3732 557.808,-89.8684 562.54,-116.936"
         stroke="black"
         fill="none" />
      <polygon
         id="polygon72"
         points="559.102,-117.604 564.113,-126.938 566.017,-116.516 559.102,-117.604"
         stroke="black"
         fill="black" />
      <text
         id="text74"
         font-size="14.00"
         font-family="Times,serif"
         y="-3.8"
         x="297"
         text-anchor="middle">0.3</text>
    </g>
    <!-- II -->
    <g
       class="node"
       id="node6">
      <title
         id="title77">II</title>
      <ellipse
         id="ellipse79"
         ry="18"
         rx="27"
         cy="-221"
         cx="459"
         stroke="black"
         fill="none" />
      <text
         id="text81"
         font-size="14.00"
         font-family="Times,serif"
         y="-217.3"
         x="459"
         text-anchor="middle">II</text>
    </g>
    <!-- I&#45;&gt;II -->
    <g
       class="edge"
       id="edge5">
      <title
         id="title84">I-&gt;II</title>
      <path
         id="path86"
         d="M50.9037,-176.765C117.913,-202.373 309.769,-275.441 324,-278 347.621,-282.247 355.141,-285.311 378,-278 399.791,-271.031 420.713,-255.712 435.693,-242.709"
         stroke="black"
         fill="none" />
      <polygon
         id="polygon88"
         points="438.284,-245.085 443.371,-235.791 433.599,-239.885 438.284,-245.085"
         stroke="black"
         fill="black" />
      <text
         id="text90"
         font-size="14.00"
         font-family="Times,serif"
         y="-262.8"
         x="243"
         text-anchor="middle">0.2</text>
    </g>
    <!-- V&#45;&gt;V -->
    <g
       class="edge"
       id="edge18">
      <title
         id="title93">V-&gt;V</title>
      <path
         id="path95"
         d="M233.431,-323.037C231.478,-332.858 234.668,-342 243,-342 248.208,-342 251.406,-338.429 252.596,-333.353"
         stroke="black"
         fill="none" />
      <polygon
         id="polygon97"
         points="256.096,-333.028 252.569,-323.037 249.096,-333.047 256.096,-333.028"
         stroke="black"
         fill="black" />
      <text
         id="text99"
         font-size="14.00"
         font-family="Times,serif"
         y="-345.8"
         x="243"
         text-anchor="middle">0.2</text>
    </g>
    <!-- V&#45;&gt;VI -->
    <g
       class="edge"
       id="edge19">
      <title
         id="title102">V-&gt;VI</title>
      <path
         id="path104"
         d="M249.438,-323.644C255.914,-341.985 268.39,-370.423 288,-388 295.843,-395.03 305.917,-400.217 315.654,-403.985"
         stroke="black"
         fill="none" />
      <polygon
         id="polygon106"
         points="314.589,-407.321 325.184,-407.296 316.886,-400.708 314.589,-407.321"
         stroke="black"
         fill="black" />
      <text
         id="text108"
         font-size="14.00"
         font-family="Times,serif"
         y="-402.8"
         x="297"
         text-anchor="middle">0.2</text>
    </g>
    <!-- V&#45;&gt;III -->
    <g
       class="edge"
       id="edge17">
      <title
         id="title111">V-&gt;III</title>
      <path
         id="path113"
         d="M269.645,-309.662C296.956,-312.721 341.225,-315.25 378,-306 450.073,-287.871 472.659,-276.575 522,-221 535.16,-206.177 546.302,-186.807 554.082,-171.332"
         stroke="black"
         fill="none" />
      <polygon
         id="polygon115"
         points="557.259,-172.801 558.479,-162.276 550.962,-169.743 557.259,-172.801"
         stroke="black"
         fill="black" />
      <text
         id="text117"
         font-size="14.00"
         font-family="Times,serif"
         y="-304.8"
         x="405"
         text-anchor="middle">0.2</text>
    </g>
    <!-- V&#45;&gt;II -->
    <g
       class="edge"
       id="edge21">
      <title
         id="title120">V-&gt;II</title>
      <path
         id="path122"
         d="M266.497,-297.064C304.708,-281.887 382.392,-251.031 426.165,-233.645"
         stroke="black"
         fill="none" />
      <polygon
         id="polygon124"
         points="427.481,-236.888 435.483,-229.944 424.897,-230.382 427.481,-236.888"
         stroke="black"
         fill="black" />
      <text
         id="text126"
         font-size="14.00"
         font-family="Times,serif"
         y="-276.8"
         x="351"
         text-anchor="middle">0.1</text>
    </g>
    <!-- VIII -->
    <g
       class="node"
       id="node7">
      <title
         id="title129">VIII</title>
      <ellipse
         id="ellipse131"
         ry="18"
         rx="27"
         cy="-517"
         cx="567"
         stroke="black"
         fill="none" />
      <text
         id="text133"
         font-size="14.00"
         font-family="Times,serif"
         y="-513.3"
         x="567"
         text-anchor="middle">VIII</text>
    </g>
    <!-- V&#45;&gt;VIII -->
    <g
       class="edge"
       id="edge20">
      <title
         id="title136">V-&gt;VIII</title>
      <path
         id="path138"
         d="M248.128,-324.022C254.096,-347.34 266.806,-388.467 288,-418 324.596,-468.995 343.179,-475.093 396,-509 443.659,-539.593 465.791,-534.92 522,-528 525.282,-527.596 528.672,-527.028 532.045,-526.362"
         stroke="black"
         fill="none" />
      <polygon
         id="polygon140"
         points="533.002,-529.734 541.993,-524.13 531.469,-522.904 533.002,-529.734"
         stroke="black"
         fill="black" />
      <text
         id="text142"
         font-size="14.00"
         font-family="Times,serif"
         y="-522.8"
         x="405"
         text-anchor="middle">0.3</text>
    </g>
    <!-- IV&#45;&gt;I -->
    <g
       class="edge"
       id="edge16">
      <title
         id="title145">IV-&gt;I</title>
      <path
         id="path147"
         d="M108.935,-126.972C97.3915,-129.737 83.6926,-133.706 72,-139 65.9837,-141.724 59.8618,-145.218 54.1721,-148.831"
         stroke="black"
         fill="none" />
      <polygon
         id="polygon149"
         points="52.0368,-146.048 45.6645,-154.512 55.9244,-151.869 52.0368,-146.048"
         stroke="black"
         fill="black" />
      <text
         id="text151"
         font-size="14.00"
         font-family="Times,serif"
         y="-142.8"
         x="81"
         text-anchor="middle">0.1</text>
    </g>
    <!-- IV&#45;&gt;V -->
    <g
       class="edge"
       id="edge14">
      <title
         id="title154">IV-&gt;V</title>
      <path
         id="path156"
         d="M145.594,-138.653C164.151,-170.866 205.077,-241.907 227.166,-280.251"
         stroke="black"
         fill="none" />
      <polygon
         id="polygon158"
         points="224.327,-282.334 232.352,-289.252 230.392,-278.84 224.327,-282.334"
         stroke="black"
         fill="black" />
      <text
         id="text160"
         font-size="14.00"
         font-family="Times,serif"
         y="-228.8"
         x="189"
         text-anchor="middle">0.5</text>
    </g>
    <!-- IV&#45;&gt;III -->
    <g
       class="edge"
       id="edge13">
      <title
         id="title163">IV-&gt;III</title>
      <path
         id="path165"
         d="M155.955,-110.185C176.714,-99.0299 210.525,-84 242,-84 242,-84 242,-84 460,-84 492.284,-84 523.612,-105.519 543.731,-122.995"
         stroke="black"
         fill="none" />
      <polygon
         id="polygon167"
         points="541.619,-125.805 551.381,-129.921 546.317,-120.615 541.619,-125.805"
         stroke="black"
         fill="black" />
      <text
         id="text169"
         font-size="14.00"
         font-family="Times,serif"
         y="-87.8"
         x="351"
         text-anchor="middle">0.1</text>
    </g>
    <!-- IV&#45;&gt;II -->
    <g
       class="edge"
       id="edge15">
      <title
         id="title172">IV-&gt;II</title>
      <path
         id="path174"
         d="M162.002,-122.289C206.951,-123.409 301.696,-128.503 378,-151 394.626,-155.902 400.153,-155.573 414,-166 424.913,-174.218 434.681,-185.738 442.225,-196.112"
         stroke="black"
         fill="none" />
      <polygon
         id="polygon176"
         points="439.439,-198.238 448.015,-204.46 445.191,-194.248 439.439,-198.238"
         stroke="black"
         fill="black" />
      <text
         id="text178"
         font-size="14.00"
         font-family="Times,serif"
         y="-137.8"
         x="297"
         text-anchor="middle">0.3</text>
    </g>
    <!-- VI&#45;&gt;V -->
    <g
       class="edge"
       id="edge23">
      <title
         id="title181">VI-&gt;V</title>
      <path
         id="path183"
         d="M335.386,-398.248C317.409,-380.101 286.72,-349.123 265.915,-328.122"
         stroke="black"
         fill="none" />
      <polygon
         id="polygon185"
         points="268.263,-325.519 258.739,-320.878 263.29,-330.445 268.263,-325.519"
         stroke="black"
         fill="black" />
      <text
         id="text187"
         font-size="14.00"
         font-family="Times,serif"
         y="-368.8"
         x="297"
         text-anchor="middle">0.4</text>
    </g>
    <!-- VI&#45;&gt;II -->
    <g
       class="edge"
       id="edge22">
      <title
         id="title190">VI-&gt;II</title>
      <path
         id="path192"
         d="M361.223,-396.012C369.556,-381.216 382.545,-359.459 396,-342 403.1,-332.786 407.598,-332.712 414,-323 429.507,-299.476 441.645,-269.583 449.208,-248.251"
         stroke="black"
         fill="none" />
      <polygon
         id="polygon194"
         points="452.608,-249.126 452.549,-238.532 445.988,-246.851 452.608,-249.126"
         stroke="black"
         fill="black" />
      <text
         id="text196"
         font-size="14.00"
         font-family="Times,serif"
         y="-345.8"
         x="405"
         text-anchor="middle">0.5</text>
    </g>
    <!-- VII -->
    <g
       class="node"
       id="node8">
      <title
         id="title199">VII</title>
      <ellipse
         id="ellipse201"
         ry="18"
         rx="27"
         cy="-499"
         cx="459"
         stroke="black"
         fill="none" />
      <text
         id="text203"
         font-size="14.00"
         font-family="Times,serif"
         y="-495.3"
         x="459"
         text-anchor="middle">VII</text>
    </g>
    <!-- VI&#45;&gt;VII -->
    <g
       class="edge"
       id="edge24">
      <title
         id="title206">VI-&gt;VII</title>
      <path
         id="path208"
         d="M368.692,-426.704C376.905,-433.435 386.96,-441.657 396,-449 408.264,-458.962 421.932,-469.993 433.308,-479.153"
         stroke="black"
         fill="none" />
      <polygon
         id="polygon210"
         points="431.148,-481.907 441.133,-485.45 435.537,-476.454 431.148,-481.907"
         stroke="black"
         fill="black" />
      <text
         id="text212"
         font-size="14.00"
         font-family="Times,serif"
         y="-465.8"
         x="405"
         text-anchor="middle">0.1</text>
    </g>
    <!-- III&#45;&gt;I -->
    <g
       class="edge"
       id="edge9">
      <title
         id="title215">III-&gt;I</title>
      <path
         id="path217"
         d="M558.629,-127.809C544.368,-97.5622 509.944,-38 460,-38 134,-38 134,-38 134,-38 81.3373,-38 50.1821,-102.871 36.4275,-140.963"
         stroke="black"
         fill="none" />
      <polygon
         id="polygon219"
         points="33.1012,-139.873 33.1541,-150.468 39.7197,-142.152 33.1012,-139.873"
         stroke="black"
         fill="black" />
      <text
         id="text221"
         font-size="14.00"
         font-family="Times,serif"
         y="-41.8"
         x="297"
         text-anchor="middle">0.2</text>
    </g>
    <!-- III&#45;&gt;V -->
    <g
       class="edge"
       id="edge11">
      <title
         id="title224">III-&gt;V</title>
      <path
         id="path226"
         d="M540.958,-150.394C529.543,-153.123 515.942,-156.76 504,-161 420.083,-190.794 400.146,-202.832 324,-249 305.052,-260.489 284.728,-274.999 269.308,-286.505"
         stroke="black"
         fill="none" />
      <polygon
         id="polygon228"
         points="267.166,-283.736 261.285,-292.549 271.378,-289.327 267.166,-283.736"
         stroke="black"
         fill="black" />
      <text
         id="text230"
         font-size="14.00"
         font-family="Times,serif"
         y="-209.8"
         x="405"
         text-anchor="middle">0.5</text>
    </g>
    <!-- III&#45;&gt;VI -->
    <g
       class="edge"
       id="edge12">
      <title
         id="title233">III-&gt;VI</title>
      <path
         id="path235"
         d="M565.482,-163.111C563.701,-196.962 555.902,-270.925 522,-321 488.805,-370.03 467.972,-374.652 414,-399 405.83,-402.685 396.604,-405.442 387.814,-407.487"
         stroke="black"
         fill="none" />
      <polygon
         id="polygon237"
         points="386.861,-404.11 377.784,-409.575 388.288,-410.963 386.861,-404.11"
         stroke="black"
         fill="black" />
      <text
         id="text239"
         font-size="14.00"
         font-family="Times,serif"
         y="-393.8"
         x="459"
         text-anchor="middle">0.2</text>
    </g>
    <!-- III&#45;&gt;II -->
    <g
       class="edge"
       id="edge10">
      <title
         id="title242">III-&gt;II</title>
      <path
         id="path244"
         d="M553.804,-160.854C545.608,-170.736 534.121,-183.201 522,-192 513.036,-198.507 502.381,-204.12 492.453,-208.628"
         stroke="black"
         fill="none" />
      <polygon
         id="polygon246"
         points="491.033,-205.429 483.238,-212.604 493.806,-211.856 491.033,-205.429"
         stroke="black"
         fill="black" />
      <text
         id="text248"
         font-size="14.00"
         font-family="Times,serif"
         y="-205.8"
         x="513"
         text-anchor="middle">0.1</text>
    </g>
    <!-- II&#45;&gt;I -->
    <g
       class="edge"
       id="edge6">
      <title
         id="title251">II-&gt;I</title>
      <path
         id="path253"
         d="M432.252,-217.826C358.825,-208.776 148.262,-182.823 63.7431,-172.406"
         stroke="black"
         fill="none" />
      <polygon
         id="polygon255"
         points="63.9638,-168.906 53.6107,-171.157 63.1074,-175.854 63.9638,-168.906"
         stroke="black"
         fill="black" />
      <text
         id="text257"
         font-size="14.00"
         font-family="Times,serif"
         y="-200.8"
         x="243"
         text-anchor="middle">0.7</text>
    </g>
    <!-- II&#45;&gt;VI -->
    <g
       class="edge"
       id="edge8">
      <title
         id="title260">II-&gt;VI</title>
      <path
         id="path262"
         d="M455.623,-239.2C451.249,-267.346 439.89,-322.224 414,-361 405.086,-374.35 391.778,-386.143 379.773,-395.108"
         stroke="black"
         fill="none" />
      <polygon
         id="polygon264"
         points="377.454,-392.463 371.344,-401.119 381.518,-398.162 377.454,-392.463"
         stroke="black"
         fill="black" />
      <text
         id="text266"
         font-size="14.00"
         font-family="Times,serif"
         y="-383.8"
         x="405"
         text-anchor="middle">0.1</text>
    </g>
    <!-- II&#45;&gt;III -->
    <g
       class="edge"
       id="edge7">
      <title
         id="title269">II-&gt;III</title>
      <path
         id="path271"
         d="M473.243,-205.536C481.491,-196.501 492.66,-185.284 504,-177 513.436,-170.107 524.564,-163.865 534.77,-158.762"
         stroke="black"
         fill="none" />
      <polygon
         id="polygon273"
         points="536.316,-161.902 543.808,-154.41 533.279,-155.595 536.316,-161.902"
         stroke="black"
         fill="black" />
      <text
         id="text275"
         font-size="14.00"
         font-family="Times,serif"
         y="-180.8"
         x="513"
         text-anchor="middle">0.2</text>
    </g>
    <!-- VIII&#45;&gt;I -->
    <g
       class="edge"
       id="edge30">
      <title
         id="title278">VIII-&gt;I</title>
      <path
         id="path280"
         d="M553.003,-532.43C534.557,-552.493 498.699,-585 460,-585 134,-585 134,-585 134,-585 53.6142,-585 33.4702,-290.249 29.0927,-196.363"
         stroke="black"
         fill="none" />
      <polygon
         id="polygon282"
         points="32.5812,-196.022 28.6441,-186.186 25.588,-196.331 32.5812,-196.022"
         stroke="black"
         fill="black" />
      <text
         id="text284"
         font-size="14.00"
         font-family="Times,serif"
         y="-588.8"
         x="297"
         text-anchor="middle">0.3</text>
    </g>
    <!-- VIII&#45;&gt;VI -->
    <g
       class="edge"
       id="edge27">
      <title
         id="title287">VIII-&gt;VI</title>
      <path
         id="path289"
         d="M549.59,-502.933C541.443,-496.116 531.363,-487.926 522,-481 506.54,-469.565 503.293,-465.41 486,-457 453.783,-441.332 414.622,-429.202 386.978,-421.682"
         stroke="black"
         fill="none" />
      <polygon
         id="polygon291"
         points="387.549,-418.213 376.985,-419.029 385.752,-424.978 387.549,-418.213"
         stroke="black"
         fill="black" />
      <text
         id="text293"
         font-size="14.00"
         font-family="Times,serif"
         y="-460.8"
         x="459"
         text-anchor="middle">0.5</text>
    </g>
    <!-- VIII&#45;&gt;VIII -->
    <g
       class="edge"
       id="edge29">
      <title
         id="title296">VIII-&gt;VIII</title>
      <path
         id="path298"
         d="M557.431,-534.037C555.478,-543.858 558.668,-553 567,-553 572.208,-553 575.406,-549.429 576.596,-544.353"
         stroke="black"
         fill="none" />
      <polygon
         id="polygon300"
         points="580.096,-544.028 576.569,-534.037 573.096,-544.047 580.096,-544.028"
         stroke="black"
         fill="black" />
      <text
         id="text302"
         font-size="14.00"
         font-family="Times,serif"
         y="-556.8"
         x="567"
         text-anchor="middle">0.1</text>
    </g>
    <!-- VIII&#45;&gt;VII -->
    <g
       class="edge"
       id="edge28">
      <title
         id="title305">VIII-&gt;VII</title>
      <path
         id="path307"
         d="M550.11,-502.733C542.243,-496.617 532.248,-490.161 522,-487 512.358,-484.026 501.636,-484.741 491.857,-486.877"
         stroke="black"
         fill="none" />
      <polygon
         id="polygon309"
         points="490.828,-483.53 482.091,-489.523 492.658,-490.286 490.828,-483.53"
         stroke="black"
         fill="black" />
      <text
         id="text311"
         font-size="14.00"
         font-family="Times,serif"
         y="-490.8"
         x="513"
         text-anchor="middle">0.1</text>
    </g>
    <!-- VII&#45;&gt;VI -->
    <g
       class="edge"
       id="edge26">
      <title
         id="title314">VII-&gt;VI</title>
      <path
         id="path316"
         d="M432.32,-495.765C420.377,-493.259 406.522,-488.826 396,-481 381.791,-470.431 370.914,-453.804 363.529,-439.638"
         stroke="black"
         fill="none" />
      <polygon
         id="polygon318"
         points="366.513,-437.773 358.976,-430.328 360.225,-440.849 366.513,-437.773"
         stroke="black"
         fill="black" />
      <text
         id="text320"
         font-size="14.00"
         font-family="Times,serif"
         y="-493.8"
         x="405"
         text-anchor="middle">0.1</text>
    </g>
    <!-- VII&#45;&gt;VIII -->
    <g
       class="edge"
       id="edge25">
      <title
         id="title323">VII-&gt;VIII</title>
      <path
         id="path325"
         d="M485.39,-503.311C498.795,-505.588 515.471,-508.42 530.171,-510.916"
         stroke="black"
         fill="none" />
      <polygon
         id="polygon327"
         points="530.005,-514.438 540.45,-512.661 531.177,-507.537 530.005,-514.438"
         stroke="black"
         fill="black" />
      <text
         id="text329"
         font-size="14.00"
         font-family="Times,serif"
         y="-512.8"
         x="513"
         text-anchor="middle">0.9</text>
    </g>
  </g>
</svg>
