<?xml version="1.0" encoding="UTF-8" standalone="no"?>
<!DOCTYPE svg PUBLIC "-//W3C//DTD SVG 1.1//EN"
 "http://www.w3.org/Graphics/SVG/1.1/DTD/svg11.dtd">
<!-- Generated by graphviz version 2.38.0 (20140413.2041)
 -->
<!-- Title: degrees Pages: 1 -->
<svg width="602pt" height="608pt"
 viewBox="0.00 0.00 602.00 608.00" xmlns="http://www.w3.org/2000/svg" xmlns:xlink="http://www.w3.org/1999/xlink">
<g id="graph0" class="graph" transform="scale(1 1) rotate(0) translate(4 604)">
<title>degrees</title>
<polygon fill="white" stroke="none" points="-4,4 -4,-604 598,-604 598,4 -4,4"/>
<!-- I -->
<g id="node1" class="node"><title>I</title>
<ellipse fill="none" stroke="black" cx="27" cy="-168" rx="27" ry="18"/>
<text text-anchor="middle" x="27" y="-164.3" font-family="Times,serif" font-size="14.00">I</text>
</g>
<!-- V -->
<g id="node2" class="node"><title>V</title>
<ellipse fill="none" stroke="black" cx="243" cy="-306" rx="27" ry="18"/>
<text text-anchor="middle" x="243" y="-302.3" font-family="Times,serif" font-size="14.00">V</text>
</g>
<!-- I&#45;&gt;V -->
<g id="edge1" class="edge"><title>I&#45;&gt;V</title>
<path fill="none" stroke="black" d="M36.1293,-185.219C43.6806,-199.632 56.1388,-219.891 72,-233 112.623,-266.573 171.005,-287.097 207.696,-297.509"/>
<polygon fill="black" stroke="black" points="206.867,-300.91 217.437,-300.179 208.718,-294.159 206.867,-300.91"/>
<text text-anchor="middle" x="135" y="-285.8" font-family="Times,serif" font-size="14.00">0.1</text>
</g>
<!-- IV -->
<g id="node3" class="node"><title>IV</title>
<ellipse fill="none" stroke="black" cx="135" cy="-122" rx="27" ry="18"/>
<text text-anchor="middle" x="135" y="-118.3" font-family="Times,serif" font-size="14.00">IV</text>
</g>
<!-- I&#45;&gt;IV -->
<g id="edge2" class="edge"><title>I&#45;&gt;IV</title>
<path fill="none" stroke="black" d="M34.025,-150.345C40.58,-134.225 52.7729,-111.376 72,-101 83.0951,-95.0126 96.2172,-98.1581 107.526,-103.645"/>
<polygon fill="black" stroke="black" points="106.076,-106.844 116.514,-108.656 109.484,-100.73 106.076,-106.844"/>
<text text-anchor="middle" x="81" y="-104.8" font-family="Times,serif" font-size="14.00">0.2</text>
</g>
<!-- VI -->
<g id="node4" class="node"><title>VI</title>
<ellipse fill="none" stroke="black" cx="351" cy="-413" rx="27" ry="18"/>
<text text-anchor="middle" x="351" y="-409.3" font-family="Times,serif" font-size="14.00">VI</text>
</g>
<!-- I&#45;&gt;VI -->
<g id="edge3" class="edge"><title>I&#45;&gt;VI</title>
<path fill="none" stroke="black" d="M34.8308,-185.608C46.301,-213.245 71.7851,-267.138 108,-301 177.695,-366.166 196.52,-390.882 288,-418 296.632,-420.559 306.218,-420.921 315.221,-420.245"/>
<polygon fill="black" stroke="black" points="315.906,-423.689 325.429,-419.045 315.089,-416.737 315.906,-423.689"/>
<text text-anchor="middle" x="189" y="-382.8" font-family="Times,serif" font-size="14.00">0.2</text>
</g>
<!-- III -->
<g id="node5" class="node"><title>III</title>
<ellipse fill="none" stroke="black" cx="567" cy="-145" rx="27" ry="18"/>
<text text-anchor="middle" x="567" y="-141.3" font-family="Times,serif" font-size="14.00">III</text>
</g>
<!-- I&#45;&gt;III -->
<g id="edge4" class="edge"><title>I&#45;&gt;III</title>
<path fill="none" stroke="black" d="M28.6442,-149.576C30.6671,-119.49 38.8926,-59.6094 72,-24 92.1195,-2.35999 104.452,-0 134,-0 134,-0 134,-0 460,-0 489.548,-0 501.322,-2.89268 522,-24 546.857,-49.3732 557.808,-89.8684 562.54,-116.936"/>
<polygon fill="black" stroke="black" points="559.102,-117.604 564.113,-126.938 566.017,-116.516 559.102,-117.604"/>
<text text-anchor="middle" x="297" y="-3.8" font-family="Times,serif" font-size="14.00">0.3</text>
</g>
<!-- II -->
<g id="node6" class="node"><title>II</title>
<ellipse fill="none" stroke="black" cx="459" cy="-221" rx="27" ry="18"/>
<text text-anchor="middle" x="459" y="-217.3" font-family="Times,serif" font-size="14.00">II</text>
</g>
<!-- I&#45;&gt;II -->
<g id="edge5" class="edge"><title>I&#45;&gt;II</title>
<path fill="none" stroke="black" d="M50.9037,-176.765C117.913,-202.373 309.769,-275.441 324,-278 347.621,-282.247 355.141,-285.311 378,-278 399.791,-271.031 420.713,-255.712 435.693,-242.709"/>
<polygon fill="black" stroke="black" points="438.284,-245.085 443.371,-235.791 433.599,-239.885 438.284,-245.085"/>
<text text-anchor="middle" x="243" y="-262.8" font-family="Times,serif" font-size="14.00">0.2</text>
</g>
<!-- V&#45;&gt;V -->
<g id="edge18" class="edge"><title>V&#45;&gt;V</title>
<path fill="none" stroke="black" d="M233.431,-323.037C231.478,-332.858 234.668,-342 243,-342 248.208,-342 251.406,-338.429 252.596,-333.353"/>
<polygon fill="black" stroke="black" points="256.096,-333.028 252.569,-323.037 249.096,-333.047 256.096,-333.028"/>
<text text-anchor="middle" x="243" y="-345.8" font-family="Times,serif" font-size="14.00">0.2</text>
</g>
<!-- V&#45;&gt;VI -->
<g id="edge19" class="edge"><title>V&#45;&gt;VI</title>
<path fill="none" stroke="black" d="M249.438,-323.644C255.914,-341.985 268.39,-370.423 288,-388 295.843,-395.03 305.917,-400.217 315.654,-403.985"/>
<polygon fill="black" stroke="black" points="314.589,-407.321 325.184,-407.296 316.886,-400.708 314.589,-407.321"/>
<text text-anchor="middle" x="297" y="-402.8" font-family="Times,serif" font-size="14.00">0.2</text>
</g>
<!-- V&#45;&gt;III -->
<g id="edge17" class="edge"><title>V&#45;&gt;III</title>
<path fill="none" stroke="black" d="M269.645,-309.662C296.956,-312.721 341.225,-315.25 378,-306 450.073,-287.871 472.659,-276.575 522,-221 535.16,-206.177 546.302,-186.807 554.082,-171.332"/>
<polygon fill="black" stroke="black" points="557.259,-172.801 558.479,-162.276 550.962,-169.743 557.259,-172.801"/>
<text text-anchor="middle" x="405" y="-304.8" font-family="Times,serif" font-size="14.00">0.2</text>
</g>
<!-- V&#45;&gt;II -->
<g id="edge21" class="edge"><title>V&#45;&gt;II</title>
<path fill="none" stroke="black" d="M266.497,-297.064C304.708,-281.887 382.392,-251.031 426.165,-233.645"/>
<polygon fill="black" stroke="black" points="427.481,-236.888 435.483,-229.944 424.897,-230.382 427.481,-236.888"/>
<text text-anchor="middle" x="351" y="-276.8" font-family="Times,serif" font-size="14.00">0.1</text>
</g>
<!-- VIII -->
<g id="node7" class="node"><title>VIII</title>
<ellipse fill="none" stroke="black" cx="567" cy="-517" rx="27" ry="18"/>
<text text-anchor="middle" x="567" y="-513.3" font-family="Times,serif" font-size="14.00">VIII</text>
</g>
<!-- V&#45;&gt;VIII -->
<g id="edge20" class="edge"><title>V&#45;&gt;VIII</title>
<path fill="none" stroke="black" d="M248.128,-324.022C254.096,-347.34 266.806,-388.467 288,-418 324.596,-468.995 343.179,-475.093 396,-509 443.659,-539.593 465.791,-534.92 522,-528 525.282,-527.596 528.672,-527.028 532.045,-526.362"/>
<polygon fill="black" stroke="black" points="533.002,-529.734 541.993,-524.13 531.469,-522.904 533.002,-529.734"/>
<text text-anchor="middle" x="405" y="-522.8" font-family="Times,serif" font-size="14.00">0.3</text>
</g>
<!-- IV&#45;&gt;I -->
<g id="edge16" class="edge"><title>IV&#45;&gt;I</title>
<path fill="none" stroke="black" d="M108.935,-126.972C97.3915,-129.737 83.6926,-133.706 72,-139 65.9837,-141.724 59.8618,-145.218 54.1721,-148.831"/>
<polygon fill="black" stroke="black" points="52.0368,-146.048 45.6645,-154.512 55.9244,-151.869 52.0368,-146.048"/>
<text text-anchor="middle" x="81" y="-142.8" font-family="Times,serif" font-size="14.00">0.1</text>
</g>
<!-- IV&#45;&gt;V -->
<g id="edge14" class="edge"><title>IV&#45;&gt;V</title>
<path fill="none" stroke="black" d="M145.594,-138.653C164.151,-170.866 205.077,-241.907 227.166,-280.251"/>
<polygon fill="black" stroke="black" points="224.327,-282.334 232.352,-289.252 230.392,-278.84 224.327,-282.334"/>
<text text-anchor="middle" x="189" y="-228.8" font-family="Times,serif" font-size="14.00">0.5</text>
</g>
<!-- IV&#45;&gt;III -->
<g id="edge13" class="edge"><title>IV&#45;&gt;III</title>
<path fill="none" stroke="black" d="M155.955,-110.185C176.714,-99.0299 210.525,-84 242,-84 242,-84 242,-84 460,-84 492.284,-84 523.612,-105.519 543.731,-122.995"/>
<polygon fill="black" stroke="black" points="541.619,-125.805 551.381,-129.921 546.317,-120.615 541.619,-125.805"/>
<text text-anchor="middle" x="351" y="-87.8" font-family="Times,serif" font-size="14.00">0.1</text>
</g>
<!-- IV&#45;&gt;II -->
<g id="edge15" class="edge"><title>IV&#45;&gt;II</title>
<path fill="none" stroke="black" d="M162.002,-122.289C206.951,-123.409 301.696,-128.503 378,-151 394.626,-155.902 400.153,-155.573 414,-166 424.913,-174.218 434.681,-185.738 442.225,-196.112"/>
<polygon fill="black" stroke="black" points="439.439,-198.238 448.015,-204.46 445.191,-194.248 439.439,-198.238"/>
<text text-anchor="middle" x="297" y="-137.8" font-family="Times,serif" font-size="14.00">0.3</text>
</g>
<!-- VI&#45;&gt;V -->
<g id="edge23" class="edge"><title>VI&#45;&gt;V</title>
<path fill="none" stroke="black" d="M335.386,-398.248C317.409,-380.101 286.72,-349.123 265.915,-328.122"/>
<polygon fill="black" stroke="black" points="268.263,-325.519 258.739,-320.878 263.29,-330.445 268.263,-325.519"/>
<text text-anchor="middle" x="297" y="-368.8" font-family="Times,serif" font-size="14.00">0.4</text>
</g>
<!-- VI&#45;&gt;II -->
<g id="edge22" class="edge"><title>VI&#45;&gt;II</title>
<path fill="none" stroke="black" d="M361.223,-396.012C369.556,-381.216 382.545,-359.459 396,-342 403.1,-332.786 407.598,-332.712 414,-323 429.507,-299.476 441.645,-269.583 449.208,-248.251"/>
<polygon fill="black" stroke="black" points="452.608,-249.126 452.549,-238.532 445.988,-246.851 452.608,-249.126"/>
<text text-anchor="middle" x="405" y="-345.8" font-family="Times,serif" font-size="14.00">0.5</text>
</g>
<!-- VII -->
<g id="node8" class="node"><title>VII</title>
<ellipse fill="none" stroke="black" cx="459" cy="-499" rx="27" ry="18"/>
<text text-anchor="middle" x="459" y="-495.3" font-family="Times,serif" font-size="14.00">VII</text>
</g>
<!-- VI&#45;&gt;VII -->
<g id="edge24" class="edge"><title>VI&#45;&gt;VII</title>
<path fill="none" stroke="black" d="M368.692,-426.704C376.905,-433.435 386.96,-441.657 396,-449 408.264,-458.962 421.932,-469.993 433.308,-479.153"/>
<polygon fill="black" stroke="black" points="431.148,-481.907 441.133,-485.45 435.537,-476.454 431.148,-481.907"/>
<text text-anchor="middle" x="405" y="-465.8" font-family="Times,serif" font-size="14.00">0.1</text>
</g>
<!-- III&#45;&gt;I -->
<g id="edge9" class="edge"><title>III&#45;&gt;I</title>
<path fill="none" stroke="black" d="M558.629,-127.809C544.368,-97.5622 509.944,-38 460,-38 134,-38 134,-38 134,-38 81.3373,-38 50.1821,-102.871 36.4275,-140.963"/>
<polygon fill="black" stroke="black" points="33.1012,-139.873 33.1541,-150.468 39.7197,-142.152 33.1012,-139.873"/>
<text text-anchor="middle" x="297" y="-41.8" font-family="Times,serif" font-size="14.00">0.2</text>
</g>
<!-- III&#45;&gt;V -->
<g id="edge11" class="edge"><title>III&#45;&gt;V</title>
<path fill="none" stroke="black" d="M540.958,-150.394C529.543,-153.123 515.942,-156.76 504,-161 420.083,-190.794 400.146,-202.832 324,-249 305.052,-260.489 284.728,-274.999 269.308,-286.505"/>
<polygon fill="black" stroke="black" points="267.166,-283.736 261.285,-292.549 271.378,-289.327 267.166,-283.736"/>
<text text-anchor="middle" x="405" y="-209.8" font-family="Times,serif" font-size="14.00">0.5</text>
</g>
<!-- III&#45;&gt;VI -->
<g id="edge12" class="edge"><title>III&#45;&gt;VI</title>
<path fill="none" stroke="black" d="M565.482,-163.111C563.701,-196.962 555.902,-270.925 522,-321 488.805,-370.03 467.972,-374.652 414,-399 405.83,-402.685 396.604,-405.442 387.814,-407.487"/>
<polygon fill="black" stroke="black" points="386.861,-404.11 377.784,-409.575 388.288,-410.963 386.861,-404.11"/>
<text text-anchor="middle" x="459" y="-393.8" font-family="Times,serif" font-size="14.00">0.2</text>
</g>
<!-- III&#45;&gt;II -->
<g id="edge10" class="edge"><title>III&#45;&gt;II</title>
<path fill="none" stroke="black" d="M553.804,-160.854C545.608,-170.736 534.121,-183.201 522,-192 513.036,-198.507 502.381,-204.12 492.453,-208.628"/>
<polygon fill="black" stroke="black" points="491.033,-205.429 483.238,-212.604 493.806,-211.856 491.033,-205.429"/>
<text text-anchor="middle" x="513" y="-205.8" font-family="Times,serif" font-size="14.00">0.1</text>
</g>
<!-- II&#45;&gt;I -->
<g id="edge6" class="edge"><title>II&#45;&gt;I</title>
<path fill="none" stroke="black" d="M432.252,-217.826C358.825,-208.776 148.262,-182.823 63.7431,-172.406"/>
<polygon fill="black" stroke="black" points="63.9638,-168.906 53.6107,-171.157 63.1074,-175.854 63.9638,-168.906"/>
<text text-anchor="middle" x="243" y="-200.8" font-family="Times,serif" font-size="14.00">0.7</text>
</g>
<!-- II&#45;&gt;VI -->
<g id="edge8" class="edge"><title>II&#45;&gt;VI</title>
<path fill="none" stroke="black" d="M455.623,-239.2C451.249,-267.346 439.89,-322.224 414,-361 405.086,-374.35 391.778,-386.143 379.773,-395.108"/>
<polygon fill="black" stroke="black" points="377.454,-392.463 371.344,-401.119 381.518,-398.162 377.454,-392.463"/>
<text text-anchor="middle" x="405" y="-383.8" font-family="Times,serif" font-size="14.00">0.1</text>
</g>
<!-- II&#45;&gt;III -->
<g id="edge7" class="edge"><title>II&#45;&gt;III</title>
<path fill="none" stroke="black" d="M473.243,-205.536C481.491,-196.501 492.66,-185.284 504,-177 513.436,-170.107 524.564,-163.865 534.77,-158.762"/>
<polygon fill="black" stroke="black" points="536.316,-161.902 543.808,-154.41 533.279,-155.595 536.316,-161.902"/>
<text text-anchor="middle" x="513" y="-180.8" font-family="Times,serif" font-size="14.00">0.2</text>
</g>
<!-- VIII&#45;&gt;I -->
<g id="edge30" class="edge"><title>VIII&#45;&gt;I</title>
<path fill="none" stroke="black" d="M553.003,-532.43C534.557,-552.493 498.699,-585 460,-585 134,-585 134,-585 134,-585 53.6142,-585 33.4702,-290.249 29.0927,-196.363"/>
<polygon fill="black" stroke="black" points="32.5812,-196.022 28.6441,-186.186 25.588,-196.331 32.5812,-196.022"/>
<text text-anchor="middle" x="297" y="-588.8" font-family="Times,serif" font-size="14.00">0.3</text>
</g>
<!-- VIII&#45;&gt;VI -->
<g id="edge27" class="edge"><title>VIII&#45;&gt;VI</title>
<path fill="none" stroke="black" d="M549.59,-502.933C541.443,-496.116 531.363,-487.926 522,-481 506.54,-469.565 503.293,-465.41 486,-457 453.783,-441.332 414.622,-429.202 386.978,-421.682"/>
<polygon fill="black" stroke="black" points="387.549,-418.213 376.985,-419.029 385.752,-424.978 387.549,-418.213"/>
<text text-anchor="middle" x="459" y="-460.8" font-family="Times,serif" font-size="14.00">0.5</text>
</g>
<!-- VIII&#45;&gt;VIII -->
<g id="edge29" class="edge"><title>VIII&#45;&gt;VIII</title>
<path fill="none" stroke="black" d="M557.431,-534.037C555.478,-543.858 558.668,-553 567,-553 572.208,-553 575.406,-549.429 576.596,-544.353"/>
<polygon fill="black" stroke="black" points="580.096,-544.028 576.569,-534.037 573.096,-544.047 580.096,-544.028"/>
<text text-anchor="middle" x="567" y="-556.8" font-family="Times,serif" font-size="14.00">0.1</text>
</g>
<!-- VIII&#45;&gt;VII -->
<g id="edge28" class="edge"><title>VIII&#45;&gt;VII</title>
<path fill="none" stroke="black" d="M550.11,-502.733C542.243,-496.617 532.248,-490.161 522,-487 512.358,-484.026 501.636,-484.741 491.857,-486.877"/>
<polygon fill="black" stroke="black" points="490.828,-483.53 482.091,-489.523 492.658,-490.286 490.828,-483.53"/>
<text text-anchor="middle" x="513" y="-490.8" font-family="Times,serif" font-size="14.00">0.1</text>
</g>
<!-- VII&#45;&gt;VI -->
<g id="edge26" class="edge"><title>VII&#45;&gt;VI</title>
<path fill="none" stroke="black" d="M432.32,-495.765C420.377,-493.259 406.522,-488.826 396,-481 381.791,-470.431 370.914,-453.804 363.529,-439.638"/>
<polygon fill="black" stroke="black" points="366.513,-437.773 358.976,-430.328 360.225,-440.849 366.513,-437.773"/>
<text text-anchor="middle" x="405" y="-493.8" font-family="Times,serif" font-size="14.00">0.1</text>
</g>
<!-- VII&#45;&gt;VIII -->
<g id="edge25" class="edge"><title>VII&#45;&gt;VIII</title>
<path fill="none" stroke="black" d="M485.39,-503.311C498.795,-505.588 515.471,-508.42 530.171,-510.916"/>
<polygon fill="black" stroke="black" points="530.005,-514.438 540.45,-512.661 531.177,-507.537 530.005,-514.438"/>
<text text-anchor="middle" x="513" y="-512.8" font-family="Times,serif" font-size="14.00">0.9</text>
</g>
</g>
</svg>
